<?xml version="1.0" encoding="UTF-8"?><svg id="Layer_1" xmlns="http://www.w3.org/2000/svg" viewBox="0 0 16 16"><defs><style>.cls-1{fill:#231f20;}.cls-2{fill:#fff;stroke:#fff;stroke-miterlimit:10;stroke-width:.25px;}</style></defs><circle class="cls-1" cx="8" cy="8" r="7.63"/><path class="cls-2" d="M11.66,3.95s.07-.07.13-.07.1.02.14.06c.04.07.03.15-.01.24l-.23.26c-.11.11-.22.22-.33.33-.11.11-.23.22-.34.33-.29.26-.59.52-.89.77-.31.26-.62.5-.94.73-.33.24-.67.47-1.01.7s-.7.43-1.06.61c.29.06.52.2.69.41.17.22.29.46.35.74.03.13.06.26.08.38.02.13.05.25.07.38.03.2.06.4.1.59.03.19.08.39.13.58.02.09.04.18.07.26.02.09.06.17.1.25.02.06.05.12.08.17.03.05.07.1.12.14.11.09.24.1.38.05.14-.06.27-.12.37-.18.16-.11.31-.23.44-.38s.27-.29.4-.44c.1-.11.19-.22.28-.32s.18-.21.28-.32c.02-.03.05-.07.09-.12.04-.05.08-.08.14-.09.09-.02.15.01.17.09.02.08.01.15-.04.21-.22.26-.44.53-.66.8s-.46.51-.73.72c-.14.11-.29.21-.46.29s-.34.12-.52.1c-.15-.02-.27-.07-.36-.16-.09-.08-.17-.19-.24-.32-.08-.17-.14-.35-.19-.53-.04-.18-.09-.36-.13-.55l-.18-.99c-.02-.12-.04-.24-.06-.36s-.05-.23-.09-.34c-.06-.19-.16-.35-.29-.49-.13-.14-.3-.22-.5-.26-.11-.02-.22-.02-.33,0-.11.02-.22.04-.33.07l-.28.12s-.07.04-.09.09l-.07.18-.45,1.06-1,2.42-.04.12c-.03.07-.08.11-.16.11-.08,0-.13-.03-.16-.11-.02-.05-.01-.1.02-.17s.05-.11.07-.17l.57-1.38c.24-.57.48-1.14.72-1.71s.47-1.14.71-1.71c.14-.35.28-.69.43-1.04.14-.34.29-.68.43-1.04.05-.11.1-.23.16-.38.05-.14.07-.27.05-.39-.02-.1-.07-.17-.15-.22-.08-.05-.17-.08-.27-.09-.1-.01-.2-.02-.31,0-.1.01-.19.02-.26.03-.2.05-.41.12-.62.22-.22.1-.38.23-.49.4-.02.03-.04.07-.04.1-.01.04-.03.07-.04.1-.07.09-.15.1-.24.05-.08-.06-.1-.14-.05-.25.04-.1.09-.18.13-.23.12-.16.27-.29.44-.39.17-.1.35-.18.53-.24.2-.07.41-.12.63-.14.22-.02.43,0,.63.08.16.06.28.16.36.29.08.13.11.28.09.45-.02.15-.06.3-.12.45-.06.15-.11.3-.17.43-.17.44-.34.88-.52,1.31-.18.43-.37.86-.56,1.29.23-.08.46-.17.68-.28s.44-.22.65-.34c.25-.15.49-.3.73-.46.24-.16.47-.32.71-.49.59-.44,1.15-.89,1.68-1.36.18-.16.36-.32.54-.49.18-.16.34-.35.5-.55Z"/></svg>