<?xml version="1.0" encoding="UTF-8"?><svg id="Layer_1" xmlns="http://www.w3.org/2000/svg" viewBox="0 0 64 64"><defs><style>.cls-1{fill:#231f20;}.cls-2{fill:#fff;}</style></defs><circle class="cls-1" cx="32" cy="32" r="30.5"/><path class="cls-2" d="M46.64,15.82c.12-.2.29-.3.51-.3s.41.08.57.24c.16.28.14.6-.06.96l-.9,1.02-1.32,1.32c-.44.44-.9.88-1.38,1.32-1.16,1.04-2.35,2.07-3.57,3.09-1.22,1.02-2.47,1.99-3.75,2.91-1.32.96-2.67,1.89-4.05,2.79s-2.79,1.71-4.23,2.43c1.16.24,2.08.79,2.76,1.65.68.86,1.14,1.85,1.38,2.97.12.52.23,1.03.33,1.53.1.5.19,1.01.27,1.53.12.8.25,1.59.39,2.37.14.78.31,1.55.51,2.31.08.36.17.71.27,1.05.1.34.23.67.39.99.08.24.18.47.3.69.12.22.28.41.48.57.44.36.95.42,1.53.18.58-.24,1.07-.48,1.47-.72.64-.44,1.23-.94,1.77-1.5.54-.56,1.07-1.14,1.59-1.74.4-.44.77-.87,1.11-1.29.34-.42.71-.85,1.11-1.29.08-.12.2-.28.36-.48.16-.2.34-.32.54-.36.36-.08.59.04.69.36.1.32.05.6-.15.84-.88,1.04-1.76,2.1-2.64,3.18-.88,1.08-1.86,2.04-2.94,2.88-.56.44-1.17.83-1.83,1.17s-1.35.47-2.07.39c-.6-.08-1.08-.29-1.44-.63-.36-.34-.68-.77-.96-1.29-.32-.68-.57-1.38-.75-2.1-.18-.72-.35-1.46-.51-2.22l-.72-3.96c-.08-.48-.16-.96-.24-1.44-.08-.48-.2-.94-.36-1.38-.24-.76-.63-1.41-1.17-1.95-.54-.54-1.21-.89-2.01-1.05-.44-.08-.88-.09-1.32-.03-.44.06-.88.15-1.32.27l-1.14.48c-.16.04-.28.16-.36.36l-.3.72-1.8,4.26-4.02,9.66-.18.48c-.12.28-.33.43-.63.45-.3.02-.51-.13-.63-.45-.08-.2-.06-.42.06-.66.12-.24.22-.46.3-.66l2.28-5.52c.96-2.28,1.92-4.56,2.88-6.84s1.9-4.56,2.82-6.84c.56-1.4,1.13-2.78,1.71-4.14.58-1.36,1.15-2.74,1.71-4.14.2-.44.41-.94.63-1.5.22-.56.29-1.08.21-1.56-.08-.4-.28-.69-.6-.87s-.68-.3-1.08-.36c-.4-.06-.81-.07-1.23-.03-.42.04-.77.08-1.05.12-.8.2-1.63.49-2.49.87-.86.38-1.51.91-1.95,1.59-.08.12-.14.26-.18.42-.04.16-.1.3-.18.42-.28.36-.6.42-.96.18-.32-.24-.39-.57-.21-.99.18-.42.35-.73.51-.93.48-.64,1.07-1.16,1.77-1.56.7-.4,1.41-.72,2.13-.96.8-.28,1.64-.47,2.52-.57.88-.1,1.72,0,2.52.33.64.24,1.12.62,1.44,1.14.32.52.44,1.12.36,1.8-.08.6-.24,1.2-.48,1.8-.24.6-.46,1.18-.66,1.74-.68,1.76-1.38,3.5-2.1,5.22-.72,1.72-1.46,3.44-2.22,5.16.92-.32,1.83-.69,2.73-1.11.9-.42,1.77-.87,2.61-1.35,1-.6,1.98-1.22,2.94-1.86s1.9-1.3,2.82-1.98c2.36-1.76,4.6-3.58,6.72-5.46.72-.64,1.44-1.29,2.16-1.95s1.38-1.39,1.98-2.19Z"/></svg>