<?xml version="1.0" encoding="UTF-8"?><svg id="Layer_1" xmlns="http://www.w3.org/2000/svg" viewBox="0 0 32 32"><defs><style>.cls-1{fill:#231f20;}.cls-2{fill:#fff;}</style></defs><circle class="cls-1" cx="16" cy="16" r="15.25"/><path class="cls-2" d="M23.32,7.91c.06-.1.14-.15.25-.15s.2.04.28.12c.08.14.07.3-.03.48l-.45.51-.66.66c-.22.22-.45.44-.69.66-.58.52-1.18,1.04-1.79,1.54-.61.51-1.24,1-1.88,1.46-.66.48-1.33.94-2.02,1.4s-1.4.85-2.12,1.21c.58.12,1.04.4,1.38.83.34.43.57.93.69,1.48.06.26.11.52.16.77.05.25.09.51.14.77.06.4.12.79.19,1.19.07.39.15.77.26,1.15.04.18.08.36.13.52.05.17.11.34.19.5.04.12.09.24.15.34.06.11.14.21.24.29.22.18.48.21.77.09.29-.12.53-.24.73-.36.32-.22.62-.47.89-.75.27-.28.53-.57.79-.87.2-.22.38-.43.55-.65.17-.21.35-.42.56-.64.04-.06.1-.14.18-.24.08-.1.17-.16.27-.18.18-.04.29.02.34.18.05.16.02.3-.07.42-.44.52-.88,1.05-1.32,1.59-.44.54-.93,1.02-1.47,1.44-.28.22-.58.42-.92.58s-.68.24-1.04.19c-.3-.04-.54-.15-.72-.31-.18-.17-.34-.38-.48-.65-.16-.34-.28-.69-.38-1.05-.09-.36-.18-.73-.25-1.11l-.36-1.98c-.04-.24-.08-.48-.12-.72-.04-.24-.1-.47-.18-.69-.12-.38-.32-.71-.59-.98-.27-.27-.6-.44-1-.52-.22-.04-.44-.05-.66-.02-.22.03-.44.07-.66.13l-.57.24c-.08.02-.14.08-.18.18l-.15.36-.9,2.13-2.01,4.83-.09.24c-.06.14-.17.22-.31.23-.15.01-.26-.06-.32-.23-.04-.1-.03-.21.03-.33.06-.12.11-.23.15-.33l1.14-2.76c.48-1.14.96-2.28,1.44-3.42s.95-2.28,1.41-3.42c.28-.7.56-1.39.85-2.07.29-.68.57-1.37.85-2.07.1-.22.2-.47.31-.75.11-.28.14-.54.1-.78-.04-.2-.14-.35-.3-.44s-.34-.15-.54-.18c-.2-.03-.41-.03-.62-.02-.21.02-.39.04-.52.06-.4.1-.82.25-1.25.44-.43.19-.76.46-.98.79-.04.06-.07.13-.09.21-.02.08-.05.15-.09.21-.14.18-.3.21-.48.09-.16-.12-.2-.29-.1-.5.09-.21.17-.36.25-.46.24-.32.53-.58.88-.78.35-.2.71-.36,1.06-.48.4-.14.82-.23,1.26-.28.44-.05.86,0,1.26.17.32.12.56.31.72.57.16.26.22.56.18.9-.04.3-.12.6-.24.9-.12.3-.23.59-.33.87-.34.88-.69,1.75-1.05,2.61-.36.86-.73,1.72-1.11,2.58.46-.16.92-.34,1.37-.55.45-.21.88-.44,1.31-.68.5-.3.99-.61,1.47-.93s.95-.65,1.41-.99c1.18-.88,2.3-1.79,3.36-2.73.36-.32.72-.65,1.08-.98s.69-.69.99-1.09Z"/></svg>